<svg width="1186" height="96" viewBox="0 0 1186 96" fill="none" xmlns="http://www.w3.org/2000/svg">
<g clip-path="url(#clip0_249_24165)">
<path fill-rule="evenodd" clip-rule="evenodd" d="M0 60L50 68C100 76 200 92 300 90C400 88 500 68 600 60C700 52 800 56 900 64C1000 72 1100 84 1150 90L1200 96V0H1150C1100 0 1000 0 900 0C800 0 700 0 600 0C500 0 400 0 300 0C200 0 100 0 50 0H0V60Z" fill="url(#paint0_linear_249_24165)" fill-opacity="0.15"/>
<path fill-rule="evenodd" clip-rule="evenodd" d="M0 55L32.615 50.4167C66.2183 45.8333 131.448 36.6667 197.667 30.5556C263.885 24.4444 329.115 21.3889 395.333 25.9722C461.552 30.5556 526.782 42.7778 593 39.7222C659.218 36.6667 724.448 18.3333 790.667 16.8056C856.885 15.2778 922.115 30.5556 988.333 33.6111C1054.55 36.6667 1119.78 27.5 1153.39 22.9167L1186 18.3333V0H1153.39C1119.78 0 1054.55 0 988.333 0C922.115 0 856.885 0 790.667 0C724.448 0 659.218 0 593 0C526.782 0 461.552 0 395.333 0C329.115 0 263.885 0 197.667 0C131.448 0 66.2183 0 32.615 0H0V55Z" fill="url(#paint1_linear_249_24165)"/>
<path fill-rule="evenodd" clip-rule="evenodd" d="M0 64H49C99 64 198 64 297 60.4112C395 56.8224 494 49.6449 593 40.6729C692 32 791 21.2336 890 19.4393C988 17.6449 1087 24.8224 1137 28.4112L1186 32V0H1137C1087 0 988 0 890 0C791 0 692 0 593 0C494 0 395 0 297 0C198 0 99 0 49 0H0V64Z" fill="url(#paint2_linear_249_24165)" fill-opacity="0.37"/>
</g>
<defs>
<linearGradient id="paint0_linear_249_24165" x1="0" y1="0" x2="1200" y2="-2.53444e-06" gradientUnits="userSpaceOnUse">
<stop stop-color="#502252"/>
<stop offset="1" stop-color="#502252" stop-opacity="0"/>
</linearGradient>
<linearGradient id="paint1_linear_249_24165" x1="-18.3488" y1="-2.48088e-07" x2="1222.7" y2="5.59287e-05" gradientUnits="userSpaceOnUse">
<stop stop-color="#6D3075"/>
<stop offset="1" stop-color="#6D3075" stop-opacity="0"/>
</linearGradient>
<linearGradient id="paint2_linear_249_24165" x1="0" y1="0" x2="1186" y2="-4.54762e-06" gradientUnits="userSpaceOnUse">
<stop stop-color="#6D3075"/>
<stop offset="1" stop-color="#6D3075" stop-opacity="0"/>
</linearGradient>
<clipPath id="clip0_249_24165">
<rect width="1186" height="96" fill="white"/>
</clipPath>
</defs>
</svg>
