<svg width="147" height="57" viewBox="0 0 147 57" fill="none" xmlns="http://www.w3.org/2000/svg">
<path fill-rule="evenodd" clip-rule="evenodd" d="M43.4979 20.9734C41.6944 21.2056 39.8856 21.4924 38.0699 21.8357C26.7455 23.9584 17.5889 27.8388 11.9354 32.3328C9.09305 34.3693 6.99813 37.2116 5.9524 40.4586C6.43798 37.2415 8.6751 34.0243 12.3863 31.0725C18.3173 26.3297 27.9941 22.2835 39.8908 20.0447L41.3822 19.7794L40.7752 19.4643L39.6653 19.6633C27.5259 21.9352 17.7623 26.0644 11.71 30.8901C8.6751 33.0625 6.43971 36.0989 5.32809 39.5614C5.84835 36.1304 8.25889 32.6977 12.2649 29.6132C18.0572 24.9865 27.1791 20.9734 38.4341 18.4859L37.6883 18.204C26.468 20.7412 17.3808 24.8373 11.5539 29.4308C8.28838 31.6977 5.86049 34.8966 4.61707 38.5681C5.17201 34.9032 7.75598 31.2218 11.9874 27.8554C18.815 22.8771 26.6259 19.2736 34.9483 17.2588L34.0292 17.01C25.7709 19.0862 18.0294 22.7163 11.2591 27.6896C7.77505 30.177 5.2119 33.6628 3.94073 37.6395C4.53035 33.7092 7.30508 29.7956 11.814 26.1805C17.5594 21.8722 24.0523 18.5589 30.9943 16.3964L29.8324 16.2306C23.0187 18.4096 16.649 21.6898 10.9989 25.9318C7.2808 28.5867 4.54076 32.3047 3.17768 36.545C3.81933 32.3494 6.76748 28.1539 11.6059 24.29C16.1252 20.8606 21.1354 18.068 26.4854 15.9984H24.994C19.8659 18.0697 15.0639 20.8092 10.7215 24.1408C6.24722 27.7227 3.33375 31.6032 2.3626 35.5002C3.03894 31.0228 6.19519 26.5287 11.3805 22.3995C14.45 19.9966 17.7745 17.9072 21.3001 16.1643L19.9821 16.3135L19.3578 16.3964C16.1963 17.9851 13.2014 19.8557 10.4093 21.985C5.64025 25.8654 2.53602 30.0112 1.4955 34.1902C2.22386 29.3976 5.60556 24.5885 11.1377 20.1608C12.4036 19.1492 13.8777 18.1377 15.3171 17.1593C14.3616 17.4213 13.4234 17.738 12.5077 18.1045C11.6371 18.5937 10.8394 19.1907 10.1318 19.8789C-3.60307 30.177 -3.46433 44.9195 11.103 50.4914L10.7908 50.1763C10.4214 49.7999 10.0798 49.4301 9.76765 49.0652L9.43815 48.6672C9.10865 48.2527 8.81384 47.8381 8.55371 47.4384L8.25889 46.9758C8.00397 46.5413 7.77852 46.0935 7.58256 45.6325L7.35711 45.0853C7.17502 44.5828 7.03628 44.0671 6.9409 43.5431C6.95824 43.3175 6.92182 43.0903 6.83685 42.8781C6.79002 42.3723 6.79002 41.8615 6.83685 41.3541C6.79349 41.0838 6.79349 40.8102 6.83685 40.5415C6.92356 40.0175 7.05709 39.5017 7.23571 38.9993C7.33803 38.6892 7.46116 38.3857 7.5999 38.0872C7.8791 37.5184 8.193 36.9645 8.53637 36.4289C9.60984 34.8933 10.94 33.5384 12.473 32.4158C20.1104 27.1473 28.9081 23.6184 38.1913 22.101C40.0989 21.7362 42.0065 21.4543 43.9141 21.2056L43.4112 20.8905" fill="white"/>
<path fill-rule="evenodd" clip-rule="evenodd" d="M9.90664 35.517C18.5777 33.1787 38.0528 32.9134 41.2264 43.2928C36.2631 40.7058 30.4153 40.1437 25.0116 41.7356C19.6008 43.3044 14.7832 46.3408 11.1379 50.475L10.7911 50.1765C14.4607 45.9494 19.3633 42.8616 24.8728 41.3045C28.3603 40.336 32.0351 40.1553 35.6076 40.7738C31.5356 39.8733 27.2868 39.9927 23.2774 41.1221C18.1129 42.5698 13.4496 45.3126 9.7679 49.0654L9.4384 48.6674C13.1739 44.8781 17.8961 42.1071 23.1213 40.6411C26.8776 39.5865 30.8385 39.3875 34.6884 40.0607C30.3356 39.0973 25.7972 39.2233 21.5085 40.4256C16.7151 41.7705 12.3207 44.1734 8.67535 47.4386L8.38054 46.9759C12.0831 43.6924 16.5382 41.2796 21.3871 39.9281C25.374 38.817 29.5777 38.6081 33.6652 39.3145C29.0072 38.2897 24.1531 38.4256 19.5662 39.7125C15.2306 40.9115 11.1917 42.9313 7.68686 45.6493L7.46141 45.102C10.9905 42.3956 15.0468 40.3841 19.3927 39.1818C23.6329 38.021 28.095 37.8121 32.434 38.5683C27.4516 37.4638 22.2542 37.6064 17.3464 38.9828C13.6439 39.9563 10.1286 41.4952 6.94115 43.5432C6.95849 43.3177 6.92207 43.0905 6.8371 42.8782C10.0263 40.8186 13.5381 39.2565 17.2423 38.2515C21.805 36.9846 26.614 36.7458 31.2894 37.555C25.9619 36.3793 20.409 36.5335 15.1613 38.0044C12.2808 38.8054 9.50604 39.9181 6.88912 41.3211C6.86311 41.0491 6.88045 40.7755 6.94115 40.5085C9.47829 39.1835 12.1594 38.1271 14.9358 37.3577C19.8141 35.9995 24.9543 35.7441 29.954 36.6114C24.2537 35.3511 18.3123 35.517 12.6987 37.0924C10.8605 37.5965 9.06382 38.23 7.32267 38.9828C7.42673 38.6711 7.54812 38.3676 7.68686 38.0708C9.25631 37.419 10.8657 36.8652 12.5079 36.4124C17.7296 34.9581 23.234 34.6861 28.584 35.6165C22.4883 34.2699 16.1342 34.4457 10.1321 36.1305L8.50193 36.6114L8.67535 36.5285C8.85398 36.2516 9.05168 35.9846 9.26498 35.7325L9.90664 35.517Z" fill="white"/>
<path fill-rule="evenodd" clip-rule="evenodd" d="M51.4751 12.35C44.5383 5.28554 39.3357 3.95889 37.6015 3.72672C46.824 8.92222 50.2716 20.0562 45.4921 29.215C43.9365 32.1121 41.9249 34.7638 39.5265 37.0754L39.9947 37.6227C42.5544 35.1966 44.6979 32.3973 46.3419 29.3311C48.5131 25.454 49.2397 20.9865 48.4056 16.6616C49.7479 21.5569 49.0906 26.7574 46.5673 31.205C45.0777 33.9877 43.1874 36.5547 40.9485 38.8333L41.3994 39.4966C43.8342 37.0837 45.8858 34.3392 47.4865 31.3543C49.7964 27.2168 50.5733 22.4524 49.6889 17.839C51.1127 23.071 50.4069 28.6247 47.7119 33.3774C46.2413 36.1285 44.3996 38.6824 42.2318 40.9725C42.3706 41.2378 42.4972 41.5081 42.6134 41.7851C45.0326 39.3059 47.0755 36.5166 48.6831 33.4935C51.1664 29.0591 51.9971 23.9466 51.0416 18.9998C52.5555 24.585 51.7994 30.5102 48.9259 35.583C47.4362 38.4552 45.565 41.13 43.3591 43.5429C43.3591 43.8911 43.5325 44.2394 43.6018 44.6042C46.1754 41.9725 48.3536 39.009 50.0704 35.7985C52.6873 31.0524 53.5423 25.5982 52.4983 20.3265C54.1614 26.3196 53.3741 32.6958 50.2959 38.1534C48.5409 41.4401 46.3228 44.4798 43.7059 47.1912C43.6816 47.7036 43.6244 48.211 43.5325 48.7168C46.687 45.6639 49.3351 42.1698 51.3884 38.3523C54.2308 33.2796 55.1846 27.4307 54.0938 21.7692C55.8401 28.167 54.9782 34.9594 51.6832 40.7735C49.1756 45.3952 45.8632 49.5742 41.885 53.1279C41.885 53.2606 42.3185 53.3104 43.203 53.244C47.1153 49.6919 50.3809 45.5378 52.8625 40.9559C55.9008 35.5316 56.9223 29.2814 55.7586 23.2285C57.609 30.074 56.6725 37.3341 53.14 43.5429C51.4248 46.7882 49.3056 49.8229 46.8275 52.5807C47.4691 52.3983 48.1628 52.1827 48.8565 51.934C51 49.4233 52.8538 46.6987 54.3886 43.8082C57.635 38.0074 58.7241 31.3244 57.4755 24.8537C59.475 32.1784 58.4883 39.9559 54.7181 46.6108C54.0816 47.7832 53.4001 48.9705 52.6717 50.1761C53.5961 49.6322 54.4718 49.017 55.2904 48.3354C55.5679 47.8545 55.8453 47.357 56.1055 46.8595C62.3312 34.9362 61.3081 22.4989 51.4751 12.3997" fill="white"/>
<path d="M96.98 39.984C95.272 40.936 93.466 41.636 91.562 42.084C89.686 42.532 87.782 42.756 85.85 42.756C83.526 42.756 81.398 42.378 79.466 41.622C77.534 40.866 75.854 39.802 74.426 38.43C73.026 37.058 71.934 35.42 71.15 33.516C70.366 31.584 69.974 29.456 69.974 27.132C69.974 24.78 70.38 22.652 71.192 20.748C72.032 18.816 73.18 17.178 74.636 15.834C76.092 14.462 77.786 13.398 79.718 12.642C81.65 11.886 83.736 11.508 85.976 11.508C87.936 11.508 89.812 11.802 91.604 12.39C93.424 12.978 95.048 13.986 96.476 15.414L93.83 18.186C92.822 17.094 91.59 16.254 90.134 15.666C88.706 15.078 87.236 14.784 85.724 14.784C84.016 14.784 82.434 15.092 80.978 15.708C79.522 16.324 78.248 17.178 77.156 18.27C76.092 19.362 75.252 20.664 74.636 22.176C74.048 23.688 73.754 25.34 73.754 27.132C73.754 28.896 74.048 30.534 74.636 32.046C75.252 33.558 76.092 34.874 77.156 35.994C78.248 37.086 79.55 37.94 81.062 38.556C82.574 39.172 84.24 39.48 86.06 39.48C87.264 39.48 88.524 39.34 89.84 39.06C91.156 38.752 92.36 38.318 93.452 37.758V28.644H86.606V25.368H96.98V39.984ZM104.385 12.264H123.075V15.54H107.913V24.864H122.067V28.14H107.913V38.724H123.831V42H104.385V12.264ZM129.282 12.264H132.81V38.724H146.418V42H129.282V12.264Z" fill="white"/>
</svg>
